<?xml version="1.0" encoding="UTF-8"?>
<svg id="Layer_1" data-name="Layer 1" xmlns="http://www.w3.org/2000/svg" xmlns:xlink="http://www.w3.org/1999/xlink" viewBox="0 0 64 64">
  <defs>
    <style>
      .cls-1 {
        clip-path: url(#clippath);
      }

      .cls-2, .cls-3, .cls-4 {
        stroke-width: 0px;
      }

      .cls-2, .cls-5 {
        fill: none;
      }

      .cls-3 {
        fill: url(#radial-gradient);
      }

      .cls-4 {
        fill: #fff;
        opacity: .2;
      }

      .cls-5 {
        stroke: #fff;
        stroke-miterlimit: 10;
        stroke-width: 1.99999px;
      }
    </style>
    <radialGradient id="radial-gradient" cx="32" cy="32.00023" fx="32" fy="32.00023" r="22" gradientTransform="translate(0 .00035)" gradientUnits="userSpaceOnUse">
      <stop offset="0" stop-color="#00b8c4"/>
      <stop offset="1" stop-color="#1383c6"/>
    </radialGradient>
    <clipPath id="clippath">
      <path class="cls-2" d="m47.55635,47.55642c-8.59153,8.59144-22.52003,8.58871-31.11157-.00273-8.59153-8.59144-8.59153-22.51866,0-31.1101,8.59153-8.59144,22.5189-8.59144,31.11044,0,8.59153,8.59144,8.59267,22.52139.00113,31.11284Z"/>
    </clipPath>
  </defs>
  <rect class="cls-2" width="64" height="64"/>
  <g>
    <circle class="cls-3" cx="32" cy="32.00023" r="21.99988"/>
    <g class="cls-1">
      <path class="cls-5" d="m46.0708,35.961c-11.16027,0-20.24-9.07963-20.24-20.23978S34.91052-4.51857,46.0708-4.51857s20.24,9.07963,20.24,20.23978-9.07973,20.23978-20.24,20.23978Zm14.52-20.23978c0-8.00628-6.51363-14.51985-14.52-14.51985s-14.52,6.51356-14.52,14.51985,6.51363,14.51985,14.52,14.51985,14.52-6.51356,14.52-14.51985Zm-14.51979-8.79998c-4.86011,0-8.8,3.93985-8.8,8.79991s3.93989,8.79991,8.8,8.79991,8.8-3.93985,8.8-8.79991-3.93989-8.79991-8.8-8.79991Zm17.54049,44.82567c0-8.7043-7.08168-15.78591-15.78629-15.78591s-15.78586,7.0816-15.78586,15.78591,7.08168,15.78591,15.78586,15.78591,15.78629-7.0816,15.78629-15.78591Zm-4.4,0c0-6.27831-5.1077-11.38595-11.38629-11.38595-6.27816,0-11.38586,5.10764-11.38586,11.38595s5.1077,11.38595,11.38586,11.38595c6.27859,0,11.38629-5.10764,11.38629-11.38595Zm-11.38609-7.42608c-4.10134,0-7.42614,3.32476-7.42614,7.42606s3.3248,7.42606,7.42614,7.42606,7.42614-3.32476,7.42614-7.42606-3.3248-7.42606-7.42614-7.42606Zm-15.35594,1.52202c0-7.55597-6.14711-13.70302-13.70316-13.70302s-13.70316,6.14704-13.70316,13.70302,6.14711,13.70302,13.70316,13.70302,13.70316-6.14704,13.70316-13.70302Zm-4.4,0c0-5.12977-4.17355-9.30306-9.30316-9.30306s-9.30316,4.1733-9.30316,9.30306,4.17355,9.30306,9.30316,9.30306,9.30316-4.1733,9.30316-9.30306Zm-9.30311-4.90306c-2.70793,0-4.90313,2.19518-4.90313,4.90308s2.19521,4.90308,4.90313,4.90308,4.90313-2.19518,4.90313-4.90308-2.19521-4.90308-4.90313-4.90308Zm7.06444-21.5639c0-7.55597-6.14711-13.70302-13.70316-13.70302S-1.57553,11.81991-1.57553,19.37589s6.14711,13.70302,13.70316,13.70302,13.70316-6.14704,13.70316-13.70302Zm-4.4,0c0-5.12977-4.17355-9.30306-9.30316-9.30306S2.82447,14.24612,2.82447,19.37589s4.17355,9.30306,9.30316,9.30306,9.30316-4.1733,9.30316-9.30306Zm-9.30298-4.90314c-2.70793,0-4.90313,2.19518-4.90313,4.90308s2.19521,4.90308,4.90313,4.90308,4.90313-2.19518,4.90313-4.90308-2.19521-4.90308-4.90313-4.90308Z"/>
    </g>
    <path class="cls-4" d="m16.44478,47.55369c-8.59028-8.59019-8.59028-22.51991,0-31.1101,8.59028-8.59019,22.52015-8.59019,31.11044,0l-31.11044,31.1101Z"/>
  </g>
</svg>